<?xml version="1.0" encoding="UTF-8" standalone="no"?>
<!-- Created with Inkscape (http://www.inkscape.org/) -->

<svg
   width="294.34445mm"
   height="259.09875mm"
   viewBox="0 0 294.34445 259.09875"
   version="1.1"
   id="svg1"
   xmlns="http://www.w3.org/2000/svg"
   xmlns:svg="http://www.w3.org/2000/svg">
  <defs
     id="defs1" />
  <g
     id="layer1"
     style="display:none"
     transform="translate(-1.118603,87.57055)">
    <path
       style="opacity:1;fill:#000000;fill-opacity:1;fill-rule:nonzero;stroke:#000000;stroke-width:1.06199;stroke-linecap:round;stroke-linejoin:bevel;stroke-dasharray:none;stroke-dashoffset:0;stroke-opacity:1;paint-order:normal"
       id="path21"
       d="m 39.629037,32.776606 c 3.048548,-1.565705 6.369989,-2.452076 9.768853,-3.129527 5.039241,-0.669341 10.28382,-0.778953 15.230056,0.50075 0.883711,0.228637 1.72703,0.570533 2.590545,0.8558 0.732059,0.337259 2.90929,1.38101 2.196182,1.01178 -0.979722,-0.507282 -1.877332,-1.301552 -2.996718,-1.426281 -0.626559,-0.06981 0.933066,0.781397 1.313667,1.238743 1.573624,1.890945 1.217597,3.030952 0.8369,5.218672 -0.417448,0.866836 -0.7218,1.786271 -1.252348,2.600509 -3.208516,4.924157 -9.315275,9.719967 -14.391372,13.02093 -1.382828,0.899246 -2.841762,1.697829 -4.262641,2.546741 -5.027789,2.672459 -10.452024,5.230732 -16.414604,5.390204 -0.799603,0.02139 -1.597994,-0.0709 -2.396989,-0.106336 1.143223,0.664237 -5.634298,-1.244852 -4.178871,-1.170605 0.921979,0.04704 2.319698,1.654582 2.604648,0.85691 0.351499,-0.983968 -1.443375,-1.611615 -2.01551,-2.506113 -1.780153,-2.783158 -1.995218,-4.226397 -3.004266,-7.370933 -1.281621,-5.954858 -2.169348,-12.191225 -0.946874,-18.228804 0.173938,-0.859052 0.462882,-1.695577 0.694323,-2.543365 1.124568,-2.950124 2.835051,-5.84609 5.552345,-7.850969 0.674357,-0.497554 1.366737,-1.010675 2.169994,-1.311482 1.138906,-0.426507 2.385276,-0.560684 3.577914,-0.841026 1.503062,-0.137526 2.999314,-0.367944 4.509187,-0.41258 9.547016,-0.282214 18.916744,1.999146 27.986744,4.411545 5.209393,1.503965 10.389505,3.172054 15.303111,5.365104 2.365502,1.055779 3.445956,1.665682 5.733782,2.860909 -0.54301,-0.243153 -2.081871,-1.094404 -1.629033,-0.729465 0.954873,0.769524 2.118123,1.295139 3.160903,1.96398 1.04479,0.670128 2.0755,1.358343 3.1011,2.052482 2.95743,2.001631 5.83206,4.10144 8.718465,6.185924 2.64165,1.910662 5.26883,3.839719 8.03644,5.600365 0.95034,0.604563 1.8743,1.252046 2.88793,1.764861 2.86807,1.451014 5.74457,2.904172 8.74264,4.119279 1.63865,0.664133 3.41562,1.00038 5.12343,1.500567 9.18082,1.762749 18.68877,2.955109 28.05676,1.739304 1.34178,-0.174137 2.66078,-0.470812 3.99116,-0.706222 4.09526,-0.88748 8.02124,-2.378954 11.39734,-4.691442 1.67121,-1.144707 2.45611,-1.930868 3.92313,-3.24532 2.36873,-2.373508 4.36514,-5.046234 5.18696,-8.187186 -0.34101,-0.585013 -0.57691,-1.231574 -1.02301,-1.755048 -1.0394,-1.219667 -3.47827,-2.999704 -4.7645,-3.888529 -4.24218,-2.931458 -8.86424,-5.040529 -13.55255,-7.360573 -1.18214,-0.353987 -2.33183,-0.81461 -3.54642,-1.061959 -2.87695,-0.585889 -7.11368,-0.814523 -9.99291,-0.914061 -5.20477,-0.179932 -10.37911,0.03248 -15.57374,0.292561 -4.78358,0.314263 -9.59308,0.931278 -14.07528,2.554562 -2.25958,0.818331 -2.78184,1.191652 -4.84491,2.295037 -0.69659,0.443752 -1.44016,0.832195 -2.08978,1.331257 -1.56274,1.200554 -3.58473,3.274183 -4.84138,4.673378 -3.10822,3.460779 -5.610715,7.231116 -8.143905,11.046212 -4.49487,6.964941 -8.21397,14.306487 -11.900223,21.642817 -1.638595,3.432838 -3.364001,6.815587 -5.523398,10.004498 -2.737436,3.912041 -6.449115,7.086209 -10.278937,10.097633 -5.494223,4.064026 -11.754731,7.115876 -18.149168,9.826635 -3.80558,1.273345 -7.914452,3.036641 -12.096701,2.542341 -0.585607,-0.0692 -1.149503,-0.2464 -1.724255,-0.36961 1.090362,0.50966 2.056806,1.37332 3.271085,1.52897 0.63417,0.0813 -0.924566,-0.81212 -1.308801,-1.27744 -0.398726,-0.482874 -0.729219,-1.012368 -1.02739,-1.551771 -0.861054,-1.557679 -1.269539,-3.188187 -1.597102,-4.887173 -0.276177,-4.875605 2.591871,-7.563949 6.186972,-10.803267 4.164256,-3.378291 9.1534,-5.934907 14.519425,-7.376271 1.23189,-0.330899 2.496171,-0.552704 3.744256,-0.829052 5.350892,-0.891317 10.829231,-1.190696 16.258562,-0.826265 3.185825,0.213838 4.611706,0.499104 7.751777,0.978343 7.774968,1.377187 15.240078,3.83269 22.693333,6.211738 5.07908,1.583951 10.14877,3.230424 15.35425,4.449444 3.2705,0.765883 4.42935,0.914804 7.72374,1.480244 6.4426,1.026107 13.00985,0.86983 19.42842,-0.230814 1.25584,-0.215346 2.49287,-0.513032 3.73929,-0.769545 4.63478,-1.239559 9.47713,-2.40461 13.55852,-4.857852 0.68061,-0.409094 1.30561,-0.889776 1.9584,-1.334663 2.85136,-2.296993 5.33026,-4.952925 7.04353,-8.052169 0.28524,-0.748641 0.73409,-1.693095 0.42101,-2.509966 -0.13256,-0.345974 -0.32389,-0.687439 -0.60028,-0.954268 -0.42818,-0.413339 -0.94066,-0.75681 -1.47577,-1.049886 -2.24502,-1.229564 -4.5666,-2.339979 -6.84989,-3.509969 -4.64228,-2.039969 -9.63847,-3.133121 -14.71173,-3.815928 -3.91742,-0.421571 -7.86445,-0.587226 -11.80517,-0.433703 -2.34982,0.143995 -4.64591,0.58158 -6.88021,1.241816 -0.92076,0.338177 -1.97237,0.60114 -2.61712,1.330051 -0.27527,0.410574 -0.38198,0.874254 -0.41343,1.347706 -0.0392,0.556767 0.1795,1.049487 0.43006,1.544042 0.6716,1.05428 1.29913,2.130925 1.95034,3.195699 0.97383,1.597504 2.11691,3.09416 3.37672,4.514331 1.10454,1.143622 2.19044,2.325046 3.51183,3.26844 4.63219,2.70241 4.64205,3.017433 8.68304,3.287676 1.1398,0.117581 2.26505,0.103161 3.36321,-0.209879 0.85688,-0.264468 1.62768,-0.675399 2.35918,-1.152009 0.4972,-0.367555 1.01757,-0.709957 1.60405,-0.948867 0.35111,-0.184426 0.72617,-0.305455 1.12392,-0.369698 0,0 -4.77339,-2.988116 -4.77339,-2.988116 v 0 c -0.41345,0.120438 -0.8068,0.281308 -1.18969,0.467491 -0.5818,0.291988 -1.11408,0.650066 -1.63556,1.023414 -0.68913,0.433319 -1.42647,0.791692 -2.23599,1.004091 -1.06993,0.209564 -2.14575,0.180572 -3.23148,0.07861 -0.65203,-0.04765 -1.3148,-0.07801 -1.95385,-0.215694 -1.89085,-0.407375 -4.94742,-2.601208 3.2205,1.932913 -1.42194,-0.812062 -2.46197,-2.043158 -3.59653,-3.149483 -1.28088,-1.384095 -2.45675,-2.841504 -3.41611,-4.430335 -0.65164,-1.039033 -1.2087,-2.123354 -1.89014,-3.146902 -0.25635,-0.414803 -0.52769,-0.828821 -0.53624,-1.316021 -0.0306,-0.354694 0.0383,-0.711835 0.21703,-1.030906 0.59047,-0.617475 1.58917,-0.803571 2.37733,-1.11884 2.17913,-0.642345 4.42315,-1.064886 6.71692,-1.175523 3.8884,-0.157111 7.78677,0.01085 11.64905,0.451453 5.04706,0.71269 10.01307,1.844404 14.59884,3.949103 -0.8806,-0.4962 -1.75019,-1.008906 -2.64182,-1.4886 -0.4997,-0.268843 1.01368,0.524535 1.46565,0.855826 1.11356,0.816234 0.88577,1.897818 0.45785,2.98149 -1.57497,3.071682 -3.94007,5.710952 -6.76709,7.918053 -0.6423,0.42837 -1.25985,0.889193 -1.92692,1.285112 -4.02506,2.388929 -8.74382,3.623546 -13.31028,4.829234 -1.23634,0.249004 -2.46375,0.537912 -3.709,0.747017 -6.39197,1.073334 -12.92245,1.139251 -19.32489,0.09758 -3.44877,-0.602683 -4.25496,-0.690534 -7.68579,-1.507983 -5.18653,-1.235775 -10.24277,-2.877515 -15.31037,-4.455223 -7.475345,-2.38547 -14.966895,-4.848142 -22.780519,-6.166369 -3.172131,-0.461942 -4.569767,-0.734444 -7.787695,-0.924862 -5.464374,-0.323353 -10.968105,0.03385 -16.348456,0.929188 -1.27278,0.281463 -2.562828,0.504944 -3.81834,0.844383 -5.431948,1.468579 -10.466127,4.130118 -14.694846,7.527543 -3.824389,3.419135 -6.705702,5.995846 -6.589592,11.14795 0.411216,2.337003 1.056941,4.692618 2.51748,6.698674 0.364263,0.500316 0.695831,1.063022 1.239132,1.404063 2.025771,1.271654 4.254616,2.253284 6.381922,3.379924 0.589395,0.0934 1.171683,0.23808 1.768181,0.28026 4.21635,0.29812 8.269684,-1.48646 12.085326,-2.825 6.407418,-2.787272 12.688651,-5.877068 18.259535,-9.919386 3.891827,-3.032806 7.698507,-6.208259 10.496872,-10.154195 2.223562,-3.19327 3.873965,-6.638036 5.410415,-10.144522 3.48466,-7.402529 7.11421,-14.769664 11.626815,-21.713045 3.70223,-5.481944 7.61232,-11.262388 13.18667,-15.375236 0.64839,-0.478393 1.369,-0.869866 2.0535,-1.304803 2.0191,-1.071969 2.53891,-1.437059 4.74382,-2.238203 4.39609,-1.597295 9.11097,-2.217822 13.8018,-2.566547 5.16194,-0.289761 10.29838,-0.513474 15.47232,-0.285382 3.23767,0.142731 6.90777,0.404217 10.08076,1.128928 1.21105,0.276604 2.35458,0.756317 3.53188,1.134473 -0.50201,-0.333314 -2.06473,-1.24796 -1.50603,-0.999946 1.04986,0.466049 2.01426,1.078035 2.99181,1.659504 2.66463,1.584984 5.38753,3.364192 7.55351,5.506758 0.41948,0.414943 0.74023,0.904038 1.11035,1.356053 -0.66792,3.076283 -2.58915,5.705218 -4.87011,8.016758 -1.51976,1.380127 -2.08501,1.986521 -3.83744,3.182415 -3.30786,2.257352 -7.14366,3.714586 -11.1428,4.612876 -3.70018,0.670302 -4.49188,0.928926 -8.39881,1.129075 -7.8525,0.402278 -15.71844,-0.603702 -23.34065,-2.25784 -1.72364,-0.533595 -3.39523,-1.233958 -5.1709,-1.60078 -0.24108,-0.04981 0.55557,0.700783 0.3338,0.601517 -1.03659,-0.464016 -1.93686,-1.145998 -2.88645,-1.74417 -2.78293,-1.753026 -5.42102,-3.681276 -8.07331,-5.590906 -7.183915,-5.185645 -14.347765,-10.443098 -22.501608,-14.35714 -2.326355,-1.197761 -3.360044,-1.778148 -5.766614,-2.82669 -4.853841,-2.114821 -9.971803,-3.696189 -15.106218,-5.13769 -9.161025,-2.368634 -18.593442,-4.62306 -28.211526,-4.341103 -1.553845,0.04555 -3.094055,0.279329 -4.641084,0.418994 -1.269052,0.300708 -2.596602,0.443816 -3.807157,0.902128 -0.83341,0.315527 -1.542935,0.862587 -2.237618,1.386407 -2.762693,2.083176 -4.528526,5.071519 -5.65886,8.107352 -0.230458,0.870459 -0.522477,1.729347 -0.691378,2.611375 -1.173163,6.126417 -0.163257,12.431146 1.028268,18.476284 0.941701,3.236319 1.090071,4.558768 2.778948,7.454995 2.236198,3.834819 3.662292,3.97915 8.676992,6.702744 0.65589,0.35623 1.402238,0.567824 2.141657,0.743265 0.697874,0.165581 1.428581,0.182207 2.142871,0.273311 0.804799,0.0094 1.611103,0.07385 2.414399,0.0282 5.95528,-0.338372 11.307933,-2.974769 16.286569,-5.742908 1.417439,-0.864655 2.871303,-1.681996 4.252316,-2.593971 2.832147,-1.870261 5.856569,-4.169729 8.373591,-6.376492 2.103144,-1.843906 4.788145,-4.417414 6.397621,-6.704877 0.584159,-0.830231 0.938632,-1.776581 1.407947,-2.664875 0.374699,-1.678734 0.797147,-2.430312 0.278824,-4.092279 -1.188926,-3.812218 -7.293006,-5.755795 -10.79675,-7.347461 -0.870761,-0.262772 -1.724324,-0.578297 -2.612282,-0.788313 -5.027913,-1.189178 -10.309097,-1.034578 -15.405026,-0.360273 -3.580189,0.708536 -6.793862,1.593717 -10.073273,3.084147 z" />
  </g>
  <g
     id="layer2"
     transform="translate(-1.118603,87.57055)">
    <path
       style="opacity:1;fill:#000000;fill-opacity:1;fill-rule:nonzero;stroke:none;stroke-width:0.765;stroke-linecap:round;stroke-linejoin:bevel;stroke-dasharray:none;stroke-dashoffset:0;stroke-opacity:1;paint-order:normal"
       d="m 36.809873,41.288896 c -0.387927,-0.08379 -0.741813,-4.088594 3.603469,-9.282403 1.851569,-2.211024 4.670149,-4.494208 8.570542,-5.776044 4.744404,-1.529284 10.889142,-1.435515 16.908898,1.48218 1.799757,0.849931 3.662297,2.003704 5.319759,3.606045 1.567357,1.50971 2.897325,3.504667 3.576488,5.909636 0.827059,3.253894 0.349676,6.735648 -1.210213,9.749246 -1.43209,2.793839 -3.483848,5.136353 -5.794324,7.126101 -6.112592,5.373401 -14.638439,9.398154 -24.283406,9.695077 -5.543528,0.199617 -11.649053,-1.013451 -16.950514,-4.509621 -4.898891,-3.354096 -8.553354,-8.428924 -10.42017,-14.247877 -1.756433,-5.177895 -2.073847,-11.284335 0.164543,-17.065763 1.635392,-3.982937 4.415759,-7.411543 7.918843,-9.908863 3.389372,-2.415755 7.291968,-3.999579 11.349892,-4.752131 7.616821,-1.347576 15.119701,-0.214313 22.206103,1.610676 9.293649,2.273762 18.904848,5.569836 27.966476,10.600431 10.497836,5.858983 19.455681,13.710842 29.585891,18.266148 8.8812,4.103245 19.05959,5.836204 29.54544,5.828154 4.46345,-0.04262 8.82832,-0.34739 12.77248,-1.510899 0,0 2e-5,-7e-6 2e-5,-7e-6 3.85794,-1.156353 7.49509,-2.99274 9.9775,-5.700153 1.60392,-1.754002 2.86348,-3.764609 3.23799,-5.775397 0,0 1e-5,-1.9e-5 1e-5,-1.9e-5 0.62946,-2.595989 -0.13059,-5.746452 -1.72195,-8.245281 -1.59421,-2.526217 -4.32184,-4.524421 -7.37019,-5.767775 -3.0501,-1.241342 -6.59334,-1.622224 -10.19594,-1.425283 0,0 -2e-5,10e-7 -2e-5,10e-7 -3.58627,0.204458 -7.26094,1.110009 -10.97462,2.343984 -0.30899,0.103955 -0.61737,0.210276 -0.92513,0.318937 -6.19595,2.187624 -12.05698,5.294873 -17.42138,9.041198 -7.94119,5.526833 -14.84898,12.594344 -21.04133,20.107912 -6.410251,7.795591 -12.147557,16.25111 -18.357891,24.417745 -6.382514,8.438713 -13.277437,16.452396 -21.620175,23.081589 -2.197666,1.76095 -4.663898,3.47859 -7.522528,4.85592 -2.898957,1.41565 -6.242513,2.25922 -9.801103,2.18 0,0 -3.7e-5,-1e-5 -3.7e-5,-1e-5 -3.819791,-0.1159 -7.541714,-1.54687 -10.502957,-4.14566 -3.015736,-2.67651 -4.831107,-6.47822 -4.981015,-10.608032 -0.03514,-2.441999 0.504552,-4.752929 1.479461,-6.785488 0.97687,-2.039467 2.27783,-3.794992 3.762215,-5.24387 3.019956,-2.88868 6.429772,-4.746546 9.61197,-6.081617 11.848261,-5.194046 24.622917,-6.916867 36.570654,-5.259518 11.526741,1.680774 23.155716,6.595416 32.306656,9.37849 13.08378,3.885809 25.3298,5.289931 36.43776,2.805514 2.82283,-0.641421 5.36853,-1.413017 7.46437,-2.696906 2.15982,-1.340916 3.93747,-3.087177 4.71641,-5.089829 0.50008,-1.362235 0.73502,-2.752963 0.31478,-3.713874 -0.21357,-0.717557 -0.81449,-1.429762 -1.53062,-2.052987 -0.75457,-0.64517 -1.76478,-1.143825 -2.85478,-1.594546 -6.04057,-2.503647 -13.05912,-1.472086 -18.4228,0.342036 -1.15204,0.410545 -2.15253,0.797313 -2.97703,1.325341 -0.85029,0.555688 -1.55122,1.177943 -1.9233,1.887914 -0.40132,0.692253 -0.56119,1.559387 -0.50761,2.372748 0.0557,0.876483 0.38905,1.747797 0.87118,2.484369 1.05336,1.641364 2.99925,2.581666 4.70934,2.785487 2.21072,0.273746 4.29137,-0.556076 5.7389,-1.59241 1.91766,-1.375319 2.91996,-3.23964 3.41557,-4.365191 0.52799,-1.199071 0.69756,-1.901786 0.87869,-1.888998 0.18113,0.01279 0.3821,0.749827 0.15452,2.185312 -0.21299,1.343436 -0.94987,3.681911 -3.09247,5.694389 -1.61751,1.521112 -4.11325,2.881536 -7.26753,2.832699 -2.48106,-0.04778 -5.34231,-1.118632 -7.32026,-3.608876 -0.87794,-1.116999 -1.53124,-2.509751 -1.77052,-4.083476 -0.22273,-1.480756 -0.0382,-3.081221 0.66225,-4.585584 0.72276,-1.472728 1.81883,-2.688047 3.11023,-3.580481 1.2145,-0.850613 2.49102,-1.465102 3.75551,-1.973241 5.88402,-2.462618 13.89721,-3.993076 21.86549,-1.296684 1.43786,0.487672 2.95252,1.195602 4.39441,2.256408 1.4177,1.034097 2.66742,2.50132 3.46139,4.377523 0.99597,2.684943 0.87221,5.521315 -0.1036,7.95481 -1.34754,3.465962 -3.85746,6.321993 -6.94786,8.259841 -2.91459,1.845097 -6.09212,2.995355 -9.28546,3.77108 -12.4865,3.073188 -26.10501,2.056428 -40.06756,-1.880721 -9.83057,-2.706346 -21.271909,-7.313112 -31.270154,-8.462958 -10.375363,-1.27706 -21.589456,0.472941 -31.872422,5.130849 -2.718529,1.291737 -5.220935,2.58783 -6.850345,4.344335 -0.81594,0.849459 -1.495496,1.757885 -1.90065,2.691581 -0.395944,0.916565 -0.630253,1.871131 -0.575737,2.706429 3.01e-4,1.359624 0.834905,2.928086 1.980559,3.951328 1.14636,1.053123 2.922237,1.660529 4.664658,1.724898 0,0 1.6e-5,1e-6 1.6e-5,1e-6 1.678803,0.09052 3.561177,-0.480702 5.444774,-1.347414 1.876141,-0.882235 3.716338,-2.239108 5.665037,-3.78138 7.360891,-5.881225 13.61476,-13.356952 19.772547,-21.52156 5.954724,-7.939863 11.714942,-16.510533 18.465584,-24.812831 6.516693,-8.031642 14.059133,-15.732597 22.973113,-22.015634 6.03775,-4.242785 12.69447,-7.767784 19.81202,-10.289456 0.3535,-0.125243 0.70791,-0.247927 1.06319,-0.368027 4.26442,-1.456988 8.79946,-2.527891 13.54655,-2.84149 0,0 3e-5,-3e-6 3e-5,-3e-6 4.80206,-0.325542 9.77776,0.292796 14.4841,2.125504 4.78218,1.860064 9.05701,5.145762 12.01672,9.603005 3.00859,4.555272 4.20421,10.223557 3.0652,15.766628 0,0 -10e-6,3.8e-5 -10e-6,3.8e-5 -0.96224,4.14121 -3.07082,7.710459 -5.77445,10.47159 -4.1128,4.205618 -9.23556,6.89732 -14.44028,8.305151 0,0 -3e-5,8e-6 -3e-5,8e-6 -5.24598,1.436736 -10.4876,1.82946 -15.43049,1.788408 -11.61651,-0.0043 -23.13516,-2.14488 -33.50553,-6.975193 C 99.656661,46.744007 90.670952,38.732334 81.306747,33.356578 73.252132,28.705613 64.395448,25.546557 55.65523,23.226921 48.974545,21.545288 42.739477,20.314208 37.024238,21.380737 c -3.025177,0.529978 -5.87507,1.582386 -8.202274,3.206545 -2.383114,1.662459 -4.323954,3.883492 -5.362306,6.355796 -1.61017,3.510504 -1.38612,7.923269 -0.266283,11.872509 1.359437,4.419493 3.919237,8.330366 7.332771,10.72224 3.594072,2.652696 8.372071,3.682284 12.884219,3.741804 7.903503,0.05279 15.317548,-3.113486 20.734005,-7.483356 2.016221,-1.666653 3.705669,-3.352051 4.743938,-5.275153 1.079133,-2.025458 1.590367,-4.238823 1.133131,-6.094448 -0.277012,-1.398802 -1.10675,-2.746031 -2.117761,-3.875305 -1.087951,-1.207608 -2.512043,-2.182156 -3.974416,-3.001303 -4.83383,-2.633399 -10.015169,-3.209288 -14.05067,-2.211591 -3.327044,0.798438 -5.964954,2.527482 -7.780248,4.242836 -4.320365,4.078141 -4.900544,7.791371 -5.288471,7.707585 z"
       id="path22"
       transform="matrix(1.7707583,0,0,2.6879312,-24.936454,-117.55206)" />
  </g>
</svg>
