<?xml version="1.0" encoding="UTF-8" standalone="no"?>
<!-- Created with Inkscape (http://www.inkscape.org/) -->

<svg
   width="743.67719"
   height="1612.702"
   viewBox="0 0 196.76459 426.69408"
   version="1.1"
   id="svg1"
   xmlns="http://www.w3.org/2000/svg"
   xmlns:svg="http://www.w3.org/2000/svg">
  <defs
     id="defs1" />
  <g
     id="layer4">
    <path
       style="fill:#000000;fill-opacity:0;stroke:#000000;stroke-width:0.292802;stroke-linecap:round;stroke-linejoin:bevel"
       d="m 140.24383,221.80478 v -77.11805 c 0,0 -3.27423,-31.80168 28.13846,-36.88499 31.41267,-5.08331 28.13847,-36.884969 28.13847,-36.884969 V 0.146401"
       id="path2-2-7-2-48-3-6" />
    <g
       id="layer4-7-2-7"
       transform="matrix(-1,0,0,1,56.764589,0)">
      <path
         style="fill:#000000;fill-opacity:0;stroke:#000000;stroke-width:0.292802;stroke-linecap:round;stroke-linejoin:bevel"
         d="m 56.520758,221.80478 v -77.11805 c 0,0 3.27423,-31.80168 -28.13846,-36.88499 C -3.030372,102.71843 0.24382795,70.916771 0.24382795,70.916771 V 0.146401"
         id="path2-2-7-2-48-3-6-7-0-8" />
      <path
         style="fill:#000000;fill-opacity:0;stroke:#000000;stroke-width:0.292802;stroke-linecap:round;stroke-linejoin:bevel"
         d="m 56.520759,204.88931 v 77.11805 c 0,0 3.27423,31.80168 -28.13846,36.88499 -31.41267,5.08331 -28.13847005,36.88497 -28.13847005,36.88497 v 70.77036"
         id="path96-0-2-2-8" />
    </g>
    <g
       id="layer4-7-2-9"
       transform="matrix(-1,0,0,1,76.764589,0)">
      <path
         style="fill:#000000;fill-opacity:0;stroke:#000000;stroke-width:0.292802;stroke-linecap:round;stroke-linejoin:bevel"
         d="m 56.520758,221.80478 v -77.11805 c 0,0 3.27423,-31.80168 -28.13846,-36.88499 C -3.030372,102.71843 0.24382795,70.916771 0.24382795,70.916771 V 0.146401"
         id="path2-2-7-2-48-3-6-7-0-4" />
      <path
         style="fill:#000000;fill-opacity:0;stroke:#000000;stroke-width:0.292802;stroke-linecap:round;stroke-linejoin:bevel"
         d="m 56.520759,204.88931 v 77.11805 c 0,0 3.27423,31.80168 -28.13846,36.88499 -31.41267,5.08331 -28.13847005,36.88497 -28.13847005,36.88497 v 70.77036"
         id="path96-0-2-2-5" />
    </g>
    <g
       id="layer4-7-2"
       transform="matrix(-1,0,0,1,116.76459,0)">
      <path
         style="fill:#000000;fill-opacity:0;stroke:#000000;stroke-width:0.292802;stroke-linecap:round;stroke-linejoin:bevel"
         d="m 56.520758,221.80478 v -77.11805 c 0,0 3.27423,-31.80168 -28.13846,-36.88499 C -3.030372,102.71843 0.24382795,70.916771 0.24382795,70.916771 V 0.146401"
         id="path2-2-7-2-48-3-6-7-0" />
      <path
         style="fill:#000000;fill-opacity:0;stroke:#000000;stroke-width:0.292802;stroke-linecap:round;stroke-linejoin:bevel"
         d="m 56.520759,204.88931 v 77.11805 c 0,0 3.27423,31.80168 -28.13846,36.88499 -31.41267,5.08331 -28.13847005,36.88497 -28.13847005,36.88497 v 70.77036"
         id="path96-0-2-2" />
    </g>
    <g
       id="layer4-7"
       transform="matrix(-1,0,0,1,136.76459,0)">
      <path
         style="fill:#000000;fill-opacity:0;stroke:#000000;stroke-width:0.292802;stroke-linecap:round;stroke-linejoin:bevel"
         d="m 56.520758,221.80478 v -77.11805 c 0,0 3.27423,-31.80168 -28.13846,-36.88499 C -3.030372,102.71843 0.24382795,70.916771 0.24382795,70.916771 V 0.146401"
         id="path2-2-7-2-48-3-6-7" />
      <path
         style="fill:#000000;fill-opacity:0;stroke:#000000;stroke-width:0.292802;stroke-linecap:round;stroke-linejoin:bevel"
         d="m 56.520759,204.88931 v 77.11805 c 0,0 3.27423,31.80168 -28.13846,36.88499 -31.41267,5.08331 -28.13847005,36.88497 -28.13847005,36.88497 v 70.77036"
         id="path96-0-2" />
    </g>
    <path
       style="fill:#000000;fill-opacity:0;stroke:#000000;stroke-width:0.292802;stroke-linecap:round;stroke-linejoin:bevel"
       d="m 140.24383,204.88931 v 77.11805 c 0,0 -3.27423,31.80168 28.13846,36.88499 31.41267,5.08331 28.13847,36.88497 28.13847,36.88497 v 70.77036"
       id="path96-0" />
    <g
       id="layer4-6"
       transform="matrix(-1,0,0,1,176.76459,0)">
      <path
         style="fill:#000000;fill-opacity:0;stroke:#000000;stroke-width:0.292802;stroke-linecap:round;stroke-linejoin:bevel"
         d="m 56.520758,221.80478 v -77.11805 c 0,0 3.27423,-31.80168 -28.13846,-36.88499 C -3.030372,102.71843 0.24382795,70.916771 0.24382795,70.916771 V 0.146401"
         id="path2-2-7-2-48-3-6-2" />
      <path
         style="fill:#000000;fill-opacity:0;stroke:#000000;stroke-width:0.292802;stroke-linecap:round;stroke-linejoin:bevel"
         d="m 56.520759,204.88931 v 77.11805 c 0,0 3.27423,31.80168 -28.13846,36.88499 -31.41267,5.08331 -28.13847005,36.88497 -28.13847005,36.88497 v 70.77036"
         id="path96-0-8" />
    </g>
  </g>
</svg>
